<svg width="56" height="42" viewBox="0 0 56 42" fill="none" xmlns="http://www.w3.org/2000/svg">
<path d="M34.5886 7.083C35.4564 7.083 36.1608 6.28971 36.1608 5.31225V1.77075C36.1608 0.793296 35.4564 0 34.5886 0C33.7199 0 33.0164 0.793296 33.0164 1.77075V5.31225C33.0164 6.28971 33.7199 7.083 34.5886 7.083Z" fill="black"/>
<path d="M53.4552 21.249H50.3107C49.4421 21.249 48.7385 22.0423 48.7385 23.0198C48.7385 23.9972 49.4421 24.7905 50.3107 24.7905H53.4552C54.323 24.7905 55.0274 23.9972 55.0274 23.0198C55.0274 22.0423 54.323 21.249 53.4552 21.249Z" fill="black"/>
<path d="M45.7065 12.2686C46.109 12.2686 46.5107 12.096 46.8181 11.7498L49.0412 9.24598C49.6552 8.5545 49.6552 7.43361 49.0412 6.74213C48.4273 6.05066 47.432 6.05066 46.8181 6.74213L44.595 9.24598C43.981 9.93746 43.981 11.0583 44.595 11.7498C44.9016 12.096 45.3041 12.2686 45.7065 12.2686Z" fill="black"/>
<path d="M22.3592 11.7498C22.6665 12.096 23.0682 12.2686 23.4707 12.2686C23.8732 12.2686 24.2757 12.096 24.5823 11.7498C25.1962 11.0583 25.1962 9.93746 24.5823 9.24598L22.3592 6.74213C21.7452 6.05066 20.75 6.05066 20.1361 6.74213C19.5221 7.43361 19.5221 8.5545 20.1361 9.24598L22.3592 11.7498Z" fill="black"/>
<path d="M6.35352 24.7167H25.2208C26.0887 24.7167 26.7931 23.9234 26.7931 22.946C26.7931 21.9685 26.0887 21.1752 25.2208 21.1752H6.35352C5.48488 21.1752 4.78131 21.9685 4.78131 22.946C4.78131 23.9234 5.48488 24.7167 6.35352 24.7167Z" fill="black"/>
<path d="M46.3802 33.1462H1.57221C0.703565 33.1462 0 33.9395 0 34.917C0 35.8945 0.703565 36.6877 1.57221 36.6877H46.3802C47.2481 36.6877 47.9524 35.8945 47.9524 34.917C47.9524 33.9395 47.2481 33.1462 46.3802 33.1462Z" fill="black"/>
<path d="M20.5043 27.6864L11.071 27.6855C10.2023 27.6855 9.49878 28.4788 9.49878 29.4563C9.49878 30.4338 10.2023 31.227 11.071 31.227L20.5043 31.2279C21.3721 31.2279 22.0765 30.4346 22.0765 29.4572C22.0765 28.4797 21.3721 27.6864 20.5043 27.6864Z" fill="black"/>
<path d="M33.2949 38.4576L12.07 38.4585C11.2014 38.4585 10.4978 39.2518 10.4978 40.2293C10.4978 41.2067 11.2014 42 12.07 42L33.2949 41.9991C34.1627 41.9991 34.8671 41.2058 34.8671 40.2284C34.8671 39.2509 34.1627 38.4576 33.2949 38.4576Z" fill="black"/>
<path d="M15.7221 19.4783H26.4155C26.9767 19.4783 27.4948 19.1418 27.7762 18.5955C29.181 15.8633 31.7916 14.166 34.5886 14.166C38.9232 14.166 42.4496 18.1378 42.4496 23.0198C42.4496 24.2531 42.2217 25.4696 41.7995 26.5613H25.1553C24.2867 26.5613 23.5831 27.3546 23.5831 28.332C23.5831 29.3095 24.2867 30.1028 25.1553 30.1028H42.7594C43.2947 30.1028 43.7923 29.7964 44.0824 29.2891C44.0965 29.2652 44.1241 29.2156 44.1366 29.1899C45.0894 27.32 45.5941 25.1872 45.5941 23.0198C45.5941 16.1847 40.6573 10.6245 34.5886 10.6245C30.9851 10.6245 27.6025 12.6361 25.5554 15.9368H15.7221C14.8534 15.9368 14.1498 16.7301 14.1498 17.7075C14.1498 18.685 14.8534 19.4783 15.7221 19.4783Z" fill="black"/>
</svg>
