<svg width="33" height="46" viewBox="0 0 33 46" fill="none" xmlns="http://www.w3.org/2000/svg">
<path d="M19.2924 24.9163C19.1787 24.8387 19.0855 24.7355 19.0206 24.6152C18.9556 24.495 18.9209 24.3612 18.9192 24.225V7.20125C18.9192 5.51049 18.237 3.88899 17.0228 2.69344C15.8086 1.4979 14.1617 0.826248 12.4446 0.826248C10.7274 0.826248 9.08054 1.4979 7.86631 2.69344C6.65209 3.88899 5.96994 5.51049 5.96994 7.20125V24.225C5.97194 24.3529 5.94306 24.4794 5.88567 24.5942C5.82829 24.7089 5.74404 24.8086 5.63986 24.885C3.65394 26.2974 2.16983 28.2894 1.39788 30.5787C0.625931 32.868 0.605286 35.3384 1.33887 37.6398C2.07246 39.9413 3.52307 41.9571 5.48513 43.4015C7.44718 44.8459 9.82116 45.6457 12.2706 45.6875H12.4446C13.9757 45.6873 15.4918 45.3902 16.9063 44.8132C18.3208 44.2361 19.606 43.3903 20.6886 42.3242C21.7712 41.2581 22.6298 39.9924 23.2156 38.5996C23.8014 37.2067 24.1028 35.7138 24.1027 34.2062C24.0991 32.3944 23.6617 30.609 22.8259 28.9948C21.9901 27.3807 20.7795 25.9833 19.2924 24.9163ZM19.0233 40.7825C18.103 41.6768 17.0048 42.374 15.7977 42.8303C14.5906 43.2866 13.3007 43.4921 12.009 43.434C10.7174 43.3758 9.45189 43.0552 8.29213 42.4923C7.13237 41.9294 6.10341 41.1364 5.2699 40.1631C4.43639 39.1898 3.81636 38.0573 3.44877 36.8367C3.08118 35.6161 2.97399 34.3338 3.13393 33.0705C3.29386 31.8072 3.71747 30.5901 4.37813 29.4957C5.03878 28.4013 5.92221 27.4533 6.97287 26.7113C7.3705 26.4258 7.69378 26.0517 7.91622 25.6196C8.13866 25.1874 8.25392 24.7095 8.25256 24.225V7.20125C8.25256 6.65955 8.36092 6.12315 8.57146 5.62268C8.782 5.12221 9.0906 4.66747 9.47962 4.28443C9.86865 3.90139 10.3305 3.59755 10.8388 3.39024C11.3471 3.18294 11.8918 3.07625 12.442 3.07625C12.9922 3.07625 13.537 3.18294 14.0452 3.39024C14.5535 3.59755 15.0154 3.90139 15.4044 4.28443C15.7934 4.66747 16.102 5.12221 16.3126 5.62268C16.5231 6.12315 16.6315 6.65955 16.6315 7.20125V24.225C16.635 24.7159 16.7559 25.199 16.9844 25.6353C17.2129 26.0716 17.5426 26.4488 17.9467 26.7363C19.1425 27.5946 20.116 28.7184 20.7881 30.0165C21.4602 31.3146 21.812 32.7504 21.815 34.2075C21.8193 35.4315 21.5745 36.6439 21.095 37.7732C20.6156 38.9025 19.9111 39.9258 19.0233 40.7825Z" fill="black"/>
<path d="M13.9667 28.4137V15.3275H10.9199V28.4137C9.47961 28.7789 8.22413 29.6489 7.38884 30.8604C6.55355 32.072 6.19583 33.542 6.38275 34.9947C6.56967 36.4474 7.2884 37.7831 8.40416 38.7513C9.51992 39.7195 10.9561 40.2537 12.4433 40.2537C13.9305 40.2537 15.3667 39.7195 16.4824 38.7513C17.5982 37.7831 18.3169 36.4474 18.5038 34.9947C18.6908 33.542 18.333 32.072 17.4977 30.8604C16.6625 29.6489 15.407 28.7789 13.9667 28.4137Z" fill="#36E2E2"/>
<path d="M28.6755 3.17375H22.6237V5.17375H28.6755V3.17375Z" fill="black"/>
<path d="M32.3825 8.37H22.6237V10.37H32.3825V8.37Z" fill="black"/>
<path d="M28.6755 13.5663H22.6237V15.5663H28.6755V13.5663Z" fill="black"/>
<path d="M32.3825 18.7612H22.6237V20.7612H32.3825V18.7612Z" fill="black"/>
</svg>
