<svg width="51" height="40" viewBox="0 0 51 40" fill="none" xmlns="http://www.w3.org/2000/svg">
<path d="M19.9535 32.6864H23.5763L24.4021 31.8955C24.6189 31.6869 24.9081 31.5703 25.2089 31.5703C25.5098 31.5703 25.799 31.6869 26.0158 31.8955L26.8416 32.6864H30.4644C30.4644 32.1161 30.8325 31.5457 31.5671 31.5457H35.8803C36.9044 29.8377 37.5019 27.9081 37.6222 25.9203C37.7425 23.9324 37.3821 21.9449 36.5714 20.1258C35.7608 18.3068 34.5238 16.7099 32.9651 15.4703C31.4065 14.2307 29.5721 13.3849 27.6173 13.0044C22.5557 11.9794 17.2402 14.3596 14.5741 18.7626C13.4216 20.6928 12.8066 22.8961 12.7927 25.1441C12.7788 27.3921 13.3665 29.6029 14.495 31.5472H18.8523C19.5824 31.5457 19.9535 32.1161 19.9535 32.6864Z" fill="#F8B62D"/>
<path d="M14.574 18.7626C17.2417 14.3596 22.5557 11.9794 27.6172 13.0045C30.4321 13.5863 32.9626 15.1149 34.7874 17.3357C36.6122 19.5565 37.6211 22.3354 37.646 25.2097C37.6567 23.7405 39.938 23.742 39.9274 25.2097C39.9013 22.1861 38.9563 19.242 37.2178 16.7682C35.4793 14.2943 33.0295 12.4077 30.1936 11.3588C24.4492 9.25695 17.7299 11.1125 13.8714 15.8348C10.2684 20.2455 9.5003 26.4431 11.9261 31.5457H14.4934C13.3655 29.6015 12.7781 27.3909 12.7923 25.1432C12.8065 22.8955 13.4216 20.6925 14.574 18.7626Z" fill="#231815"/>
<path d="M37.646 25.2097C37.6567 26.6773 39.938 26.6804 39.9274 25.2097C39.9167 23.7389 37.6567 23.7359 37.646 25.2097Z" fill="#231815"/>
<path d="M37.6461 25.2097C37.6247 27.44 37.0162 29.6253 35.8818 31.5457H38.4415C39.3998 29.5697 39.9078 27.4057 39.9289 25.2097C39.9381 26.6804 37.6567 26.6773 37.6461 25.2097Z" fill="#231815"/>
<path d="M26.3503 6.22124V1.10189C26.3503 -0.365776 24.069 -0.368818 24.069 1.10189V6.21972C24.069 7.68891 26.3503 7.69043 26.3503 6.22124Z" fill="#231815"/>
<path d="M16.6926 8.18928L14.133 3.75586C13.3984 2.48439 11.4273 3.63267 12.1558 4.90718L14.7155 9.34061C15.4638 10.6121 17.4364 9.4638 16.6926 8.18928ZM15.7071 8.76571L13.1474 4.33228L15.7071 8.76571Z" fill="#231815"/>
<path d="M3.75589 14.1405L8.18931 16.7002C9.46382 17.4363 10.6136 15.4652 9.34063 14.723L4.90721 12.1771C3.63421 11.4364 2.48289 13.406 3.75589 14.1405ZM4.33231 13.155L8.76573 15.7147L4.33231 13.155Z" fill="#231815"/>
<path d="M1.10189 26.3503H6.21972C7.68738 26.3503 7.69043 24.069 6.21972 24.069H1.10189C-0.365776 24.069 -0.368818 26.3503 1.10189 26.3503Z" fill="#231815"/>
<path d="M49.3174 24.069H44.1996C42.7319 24.069 42.7289 26.3503 44.1996 26.3503H49.3174C50.7851 26.3503 50.7881 24.069 49.3174 24.069Z" fill="#231815"/>
<path d="M42.23 16.7002L46.6634 14.1405C47.9349 13.406 46.7866 11.4349 45.5121 12.1634L41.0787 14.7231C39.8103 15.4637 40.9555 17.4363 42.23 16.7002ZM46.087 13.1565L41.6536 15.7162L46.087 13.1565Z" fill="#231815"/>
<path d="M35.6887 9.3406L38.2484 4.90718C38.9845 3.63418 37.0134 2.48286 36.2712 3.75586L33.7267 8.18928C32.9845 9.46227 34.9541 10.6136 35.6887 9.3406ZM37.2628 4.33228L34.7031 8.7657L37.2628 4.33228Z" fill="#231815"/>
<path d="M49.1364 31.5457H31.567C30.8324 31.5457 30.4659 32.1161 30.4644 32.6864C30.4628 33.2567 30.8309 33.8271 31.567 33.8271H49.1364C50.6087 33.8271 50.6087 31.5457 49.1364 31.5457Z" fill="#231815"/>
<path d="M13.2828 33.8271H18.8523C19.5869 33.8271 19.9534 33.2567 19.9534 32.6864C19.9534 32.1161 19.5869 31.5457 18.8523 31.5457H1.28286C-0.184807 31.5457 -0.187848 33.8271 1.28286 33.8271H13.2812H13.2828Z" fill="#231815"/>
<path d="M44.2437 37.6461H32.0248L30.7001 36.3792L26.8416 32.6864L26.0157 31.8955C25.7989 31.6869 25.5098 31.5703 25.2089 31.5703C24.908 31.5703 24.6188 31.6869 24.402 31.8955L23.5762 32.6864L19.7466 36.3503L18.393 37.6445H6.17559C4.70792 37.6445 4.70488 39.9259 6.17559 39.9259H15.5656C16.6515 39.9259 17.7679 40.0004 18.8523 39.9259C19.4394 39.8864 19.8546 39.4286 20.2546 39.0255L20.4066 38.8826L20.4949 38.7928L22.1253 37.2324L22.3945 36.9753L25.2096 34.2849C26.221 35.2735 27.2248 36.2803 28.2514 37.2674C28.7838 37.7814 29.3161 38.2909 29.8682 38.7883C29.9731 38.8841 30.0796 38.9769 30.1845 39.0711C30.3731 39.24 30.5602 39.4088 30.7518 39.573C31.5122 40.2362 33.167 39.9289 34.0978 39.9289H44.2604C45.7114 39.9274 45.7144 37.6461 44.2437 37.6461Z" fill="#231815"/>
</svg>
