<svg width="50" height="44" viewBox="0 0 50 44" fill="none" xmlns="http://www.w3.org/2000/svg">
<path d="M35.5834 30.156C36.599 28.5233 37.1915 26.6787 37.3108 24.7784C37.4301 22.8781 37.0727 20.9781 36.2688 19.2392C35.4649 17.5003 34.2381 15.9738 32.6925 14.7888C31.1468 13.6038 29.3277 12.7952 27.3891 12.4315C22.3696 11.4516 17.0983 13.727 14.4543 17.936C13.3115 19.7812 12.7016 21.8874 12.6878 24.0364C12.674 26.1854 13.2568 28.2988 14.3759 30.1574H35.5834V30.156Z" fill="#F8B62D"/>
<path d="M37.3329 24.0991C37.3118 26.2311 36.7083 28.3202 35.5834 30.156H38.1218C39.0721 28.267 39.5758 26.1983 39.5968 24.0991C39.6059 25.505 37.3435 25.5021 37.3329 24.0991Z" fill="#231815"/>
<path d="M14.4528 17.936C17.0983 13.727 22.3681 11.4516 27.3876 12.4316C30.179 12.9878 32.6885 14.449 34.4981 16.572C36.3077 18.695 37.3082 21.3515 37.333 24.0991C37.3435 22.6946 39.6059 22.6961 39.5953 24.0991C39.5695 21.2087 38.6324 18.3943 36.9083 16.0295C35.1842 13.6646 32.7548 11.8611 29.9425 10.8584C24.2459 8.84915 17.5824 10.6229 13.756 15.1373C10.183 19.3536 9.42129 25.2782 11.8269 30.156H14.3729C13.2543 28.2974 12.6719 26.1842 12.6859 24.0355C12.7 21.8868 13.31 19.7809 14.4528 17.936V17.936Z" fill="#231815"/>
<path d="M37.333 24.0991C37.3435 25.5021 39.6059 25.505 39.5954 24.0991C39.5848 22.6931 37.3435 22.6902 37.333 24.0991Z" fill="#231815"/>
<path d="M23.8688 1.05335V5.94571C23.8688 7.34872 26.1312 7.35163 26.1312 5.94571V1.05335C26.1312 -0.349662 23.8688 -0.35257 23.8688 1.05335Z" fill="#231815"/>
<path d="M12.0698 4.69101L14.6082 8.92912C15.3367 10.1446 17.2913 9.04688 16.5689 7.82851L14.0305 3.59041C13.296 2.3764 11.3398 3.47264 12.0698 4.69101ZM13.0471 4.13998L15.5855 8.37809L13.0471 4.13998Z" fill="#231815"/>
<path d="M4.86632 11.6406C3.60392 10.9369 2.46217 12.8212 3.72458 13.5307L8.12113 15.9776C9.38504 16.6813 10.5253 14.797 9.26287 14.0875L4.86632 11.6406ZM4.2947 12.5827L8.69125 15.0297L4.2947 12.5827Z" fill="#231815"/>
<path d="M1.09273 25.1895H6.16799C7.62345 25.1895 7.62647 23.0086 6.16799 23.0086H1.09273C-0.362734 23.0086 -0.36575 25.1895 1.09273 25.1895Z" fill="#231815"/>
<path d="M48.9073 23.0086H43.832C42.3766 23.0086 42.3736 25.1895 43.832 25.1895H48.9073C50.3628 25.1895 50.3658 23.0086 48.9073 23.0086Z" fill="#231815"/>
<path d="M45.1336 11.6406L40.7371 14.0875C39.4762 14.7898 40.6149 16.674 41.8788 15.9776L46.2753 13.5307C47.5362 12.8168 46.3975 10.9311 45.1336 11.6406ZM41.3087 15.0282L45.7052 12.5813L41.3087 15.0282Z" fill="#231815"/>
<path d="M35.977 3.59041L33.4462 7.82851C32.7162 9.04688 34.6709 10.146 35.4069 8.92911L37.9453 4.69101C38.6602 3.47409 36.7055 2.37495 35.977 3.59041ZM34.416 8.37809L36.9544 4.13998L34.416 8.37809Z" fill="#231815"/>
<path d="M48.7278 30.156H38.1218C37.9358 30.5282 37.7347 30.8917 37.5185 31.2464H43.5062V32.3369H48.7278C50.1878 32.3369 50.1878 30.156 48.7278 30.156Z" fill="#231815"/>
<path d="M1.27223 31.2464H12.4333C12.2141 30.8897 12.013 30.5263 11.83 30.156H1.27223C-0.183229 30.156 -0.186246 32.3369 1.27223 32.3369H6.49379V31.2464H1.27223Z" fill="#231815"/>
<path d="M35.5834 30.156H14.3744C14.6035 30.5333 14.8553 30.8974 15.1285 31.2464H34.8262C35.0988 30.8963 35.3515 30.5323 35.5834 30.156V30.156Z" fill="#231815"/>
<path d="M15.1345 31.2464C14.8613 30.8974 14.6095 30.5333 14.3804 30.156H11.8269C12.0089 30.5263 12.21 30.8897 12.4302 31.2464H15.1345Z" fill="#231815"/>
<path d="M34.8308 31.2464H37.5185C37.7367 30.8917 37.9378 30.5282 38.1218 30.156H35.5834C35.353 30.5322 35.1018 30.8962 34.8308 31.2464Z" fill="#231815"/>
<path d="M12.4997 31.3642C12.4755 31.3249 12.4529 31.2857 12.4288 31.2464H6.4938V32.3368H13.1723C12.934 32.0242 12.7108 31.7044 12.4997 31.3642Z" fill="#231815"/>
<path d="M16.1149 32.3368H33.8791C34.2184 31.9918 34.5362 31.6277 34.8308 31.2464H15.1345C15.227 31.3637 15.322 31.479 15.4196 31.5924C15.6408 31.8522 15.8726 32.1003 16.1149 32.3368Z" fill="#231815"/>
<path d="M37.5184 31.2464C37.2882 31.6205 37.0413 31.984 36.7779 32.3368H43.5062V31.2464H37.5184Z" fill="#231815"/>
<path d="M33.879 32.3368H36.7643C37.0278 31.984 37.2746 31.6205 37.5049 31.2464H34.8307C34.5361 31.6277 34.2183 31.9918 33.879 32.3368V32.3368Z" fill="#231815"/>
<path d="M15.4181 31.5924C15.3175 31.479 15.2225 31.3637 15.133 31.2464H12.4287C12.4529 31.2857 12.4755 31.3249 12.4996 31.3642C12.7108 31.7 12.9355 32.0242 13.1723 32.3368H16.1149C15.8736 32.0994 15.6413 31.8512 15.4181 31.5924Z" fill="#231815"/>
<path d="M43.8757 37.0838H43.5062V38.1742H43.8757C45.3312 38.1742 45.3342 35.9934 43.8757 35.9934H43.5062V37.0838H43.8757Z" fill="#231815"/>
<path d="M6.12425 37.0838H6.49377V35.9934H6.12425C4.66879 35.9934 4.66577 38.1742 6.12425 38.1742H6.49377V37.0838H6.12425Z" fill="#231815"/>
<path d="M17.8946 37.8485L18.2415 38.1684H18.694L17.8946 37.8485Z" fill="#231815"/>
<path d="M32.8293 35.9599C32.1349 36.3956 31.402 36.7717 30.6393 37.0838H43.5062V35.9934H34.5638C33.9907 35.9876 33.41 35.9672 32.8293 35.9599Z" fill="#231815"/>
<path d="M31.3045 38.1684H31.7569L32.1038 37.8485L31.3045 38.1684Z" fill="#231815"/>
<path d="M31.3045 37.0838L25 42.8994L18.6955 37.0838H6.4938V38.1742H18.2416L17.8947 37.8544L18.694 38.1742H18.2416L24.2007 43.6714C24.4156 43.8709 24.7024 43.9823 25.0008 43.9823C25.2992 43.9823 25.5859 43.8709 25.8009 43.6714L31.76 38.1742H31.3075L32.1069 37.8544L31.76 38.1742H43.5063V37.0838H31.3045Z" fill="#231815"/>
<path d="M18.6955 37.0838H19.4663C18.6694 36.7701 17.9023 36.3902 17.1737 35.9483C16.8148 35.9687 16.4769 35.9934 16.2039 35.9934H6.4938V37.0838H18.6955Z" fill="#231815"/>
<path d="M31.3045 35.9876C30.6514 36.0312 30.214 36.5691 29.7706 36.985L29.6756 37.0838H30.6454C31.4079 36.7736 32.1407 36.3994 32.8354 35.9658C32.3195 35.9527 31.8082 35.9541 31.3045 35.9876Z" fill="#231815"/>
<path d="M19.5175 36.3263C18.9851 35.8814 18.0198 35.8902 17.1737 35.9411C17.9022 36.3829 18.6693 36.7629 19.4662 37.0765H20.3923C20.1027 36.8236 19.8111 36.5735 19.5175 36.3263Z" fill="#231815"/>
<path d="M25.7994 42.123C25.5329 41.8778 25.268 41.6306 25.0046 41.3815L24.2007 42.123H25.7994Z" fill="#231815"/>
<path d="M27.7857 38.8154L25 41.3801C25.2644 41.6292 25.5294 41.8763 25.7948 42.1216H24.2006L25.0045 41.3801C23.6591 40.1137 22.3304 38.8154 20.9549 37.5781C20.4498 37.4369 19.9529 37.2699 19.4662 37.078H18.6955L25 42.8994L31.3045 37.0838H30.6393C30.1358 37.2898 29.6201 37.467 29.0949 37.6145L27.7857 38.8154Z" fill="#231815"/>
<path d="M29.0949 37.6072C29.6199 37.4621 30.1356 37.2873 30.6394 37.0838H29.6756L29.0949 37.6072Z" fill="#231815"/>
<path d="M20.3923 37.0838H19.4662C19.9529 37.2757 20.4498 37.4427 20.9549 37.5839C20.7678 37.4124 20.5803 37.2457 20.3923 37.0838Z" fill="#231815"/>
</svg>
